<svg xmlns="http://www.w3.org/2000/svg" version="1.1" width="50px" height="50px" style="shape-rendering:geometricPrecision; text-rendering:geometricPrecision; image-rendering:optimizeQuality; fill-rule:evenodd; clip-rule:evenodd" xmlns:xlink="http://www.w3.org/1999/xlink">
<g></g>
<g><path style="opacity:1" fill="#2ebaa8" d="M 18.5,3.5 C 31.3972,2.35594 40.2306,7.68928 45,19.5C 45.4966,21.8098 45.6633,24.1432 45.5,26.5C 46.552,26.3505 47.552,26.5172 48.5,27C 39.5845,40.0688 36.9178,38.4021 40.5,22C 35.6685,10.5085 27.3352,6.50853 15.5,10C 14.7069,8.91476 14.0402,7.7481 13.5,6.5C 15.1446,5.30374 16.8113,4.30374 18.5,3.5 Z" data-index="1"></path></g>
<g><path style="opacity:1" fill="#2bb9a8" d="M 20.5,12.5 C 26.5374,11.1008 30.8707,13.1008 33.5,18.5C 32.6667,18.8333 31.8333,19.1667 31,19.5C 29.1664,18.1643 27.1664,17.1643 25,16.5C 21.7155,16.7003 20.8821,18.2003 22.5,21C 25.9033,21.5783 29.0699,22.7449 32,24.5C 34.4619,28.8689 33.6285,32.3689 29.5,35C 24.1602,36.534 19.6602,35.3674 16,31.5C 15.5172,30.552 15.3505,29.552 15.5,28.5C 18.8696,28.7206 21.8696,29.7206 24.5,31.5C 28.1657,31.631 29.1657,30.131 27.5,27C 23.5492,26.4638 20.0492,24.9638 17,22.5C 15.5812,18.0823 16.7478,14.7489 20.5,12.5 Z" data-index="2"></path></g>
<g><path style="opacity:1" fill="#28b8a7" d="M 9.5,19.5 C 9.01394,22.3817 9.01394,25.0483 9.5,27.5C 11.5047,35.4408 16.6713,39.7742 25,40.5C 27.8733,40.5545 30.5399,39.8878 33,38.5C 36.7763,41.7625 36.2763,43.9292 31.5,45C 21.306,46.9373 13.1393,43.7706 7,35.5C 5.16166,30.7918 3.32833,26.1251 1.5,21.5C 3.81675,18.6826 6.31675,16.0159 9,13.5C 9.49546,15.4727 9.66212,17.4727 9.5,19.5 Z" data-index="3"></path></g>
<g><path style="opacity:1" fill="#90dad2" d="M 9.5,19.5 C 10.7671,22.0613 10.7671,24.728 9.5,27.5C 10.7671,24.728 10.7671,22.0613 9.5,19.5 Z" data-index="4"></path></g>
</svg>